<svg xmlns="http://www.w3.org/2000/svg" width="256" height="384" viewBox="0 0 512 768" xmlns:c2pa="http://c2pa.org/manifest"><metadata><c2pa:manifest>AAAWgmp1bWIAAAAeanVtZGMycGEAEQAQgAAAqgA4m3EDYzJwYQAAABZcanVtYgAAAEdqdW1kYzJtYQARABCAAACqADibcQN1cm46YzJwYTowNDkwYjE4Yy04NWU3LTRkNDctOTA1NC0xYjdiYzMyMzU2MTUAAAADl2p1bWIAAAApanVtZGMyYXMAEQAQgAAAqgA4m3EDYzJwYS5hc3NlcnRpb25zAAAAALxqdW1iAAAARGp1bWRjYm9yABEAEIAAAKoAOJtxE2MycGEuaW5ncmVkaWVudC52MwAAAAAYYzJzaMDoARPXoh8ul7zRlbusTYwAAABwY2JvcqNpZGM6Zm9ybWF0bWltYWdlL3N2Zyt4bWxqaW5zdGFuY2VJRHgseG1wOmlpZDowNDIyM2Y2YS0wYTk4LTQ0MjQtYWQ2MS1iMDI2ODgxY2QyNDZscmVsYXRpb25zaGlwaHBhcmVudE9mAAAB4mp1bWIAAABBanVtZGNib3IAEQAQgAAAqgA4m3ETYzJwYS5hY3Rpb25zLnYyAAAAABhjMnNoiIsjrQWhIj3pUK2Q2fOmYwAAAZljYm9yomdhY3Rpb25zgqJmYWN0aW9ua2MycGEub3BlbmVkanBhcmFtZXRlcnOha2luZ3JlZGllbnRzgaJjdXJseC1zZWxmI2p1bWJmPWMycGEuYXNzZXJ0aW9ucy9jMnBhLmluZ3JlZGllbnQudjNkaGFzaFggnAb0T+mSAFxyoPCD1/mFRC34xky+p4B/7yqBPXhUnWGkZmFjdGlvbngdY29tLmFudGhyb3BpYy5jbGF1ZGUucHJvdmlkZWRqcGFyYW1ldGVyc6F4H2NvbS5hbnRocm9waWMub3JpZ2luLWNvbmZpZGVuY2VndW5rbm93bmtkZXNjcmlwdGlvbnhmQ2xhdWRlIHByb3ZpZGVkIHRoaXMgZmlsZSBhdCB0aGUgcmVxdWVzdCBvZiBhIHVzZXIgYW5kIG1heSBoYXZlIGNyZWF0ZWQgb3IgbW9kaWZpZWQgdGhlIGZpbGUgY29udGVudHMubXNvZnR3YXJlQWdlbnShZG5hbWVmQ2xhdWRlcmFsbEFjdGlvbnNJbmNsdWRlZPUAAADIanVtYgAAAEBqdW1kY2JvcgARABCAAACqADibcRNjMnBhLmhhc2guZGF0YQAAAAAYYzJzaDOfWHYWHa/mHyWLADRr2wEAAACAY2JvcqVjYWxnZnNoYTI1NmNwYWRNAAAAAAAAAAAAAAAAAGRoYXNoWCD2HG/sixvbPJMizzNlz0Ayi1lSDue+ra+Z/0KFCDyKvGRuYW1lbmp1bWJmIG1hbmlmZXN0amV4Y2x1c2lvbnOBomVzdGFydBiWZmxlbmd0aBkeBAAAAj5qdW1iAAAAJ2p1bWRjMmNsABEAEIAAAKoAOJtxA2MycGEuY2xhaW0udjIAAAACD2Nib3KlY2FsZ2ZzaGEyNTZpc2lnbmF0dXJleE1zZWxmI2p1bWJmPS9jMnBhL3VybjpjMnBhOjA0OTBiMThjLTg1ZTctNGQ0Ny05MDU0LTFiN2JjMzIzNTYxNS9jMnBhLnNpZ25hdHVyZWppbnN0YW5jZUlEeCx4bXA6aWlkOjhkZjg5MTRmLTgzMTAtNDU0MS1iYWI0LTc4M2EzY2U0ZmI3YXJjcmVhdGVkX2Fzc2VydGlvbnODomN1cmx4LXNlbGYjanVtYmY9YzJwYS5hc3NlcnRpb25zL2MycGEuaW5ncmVkaWVudC52M2RoYXNoWCCcBvRP6ZIAXHKg8IPX+YVELfjGTL6ngH/vKoE9eFSdYaJjdXJseCpzZWxmI2p1bWJmPWMycGEuYXNzZXJ0aW9ucy9jMnBhLmFjdGlvbnMudjJkaGFzaFggSNTdCkiUCzfR6sY2qnliE0ib1MQmy1iWfXsioLLoxDSiY3VybHgpc2VsZiNqdW1iZj1jMnBhLmFzc2VydGlvbnMvYzJwYS5oYXNoLmRhdGFkaGFzaFgg/8ZXxNbBEABM4jZNVnIoYXBq308oGMpN7tx4IPFIZcJ0Y2xhaW1fZ2VuZXJhdG9yX2luZm+jZG5hbWVvQW50aHJvcGljIEZpbGVzZ3ZlcnNpb25lMS4wLjBrc3BlY1ZlcnNpb25lMi40LjAAABA4anVtYgAAAChqdW1kYzJjcwARABCAAACqADibcQNjMnBhLnNpZ25hdHVyZQAAABAIY2JvctKEWQISogEmGCFZAgowggIGMIIBjaADAgECAhRA5aAK7sI50L64g/oGQgU9Z1UTADAKBggqhkjOPQQDAzBJMRcwFQYDVQQKEw5BbnRocm9waWMsIFBCQzEuMCwGA1UEAxMlQW50aHJvcGljIENvbnRlbnQgQ3JlZGVudGlhbHMgUm9vdCBDQTAeFw0yNjA4MDcxODQzNTZaFw0yODA4MDYxOTQzNTZaMEQxFzAVBgNVBAoTDkFudGhyb3BpYywgUEJDMSkwJwYDVQQDEyBBbnRocm9waWMgQ2xhdWRlIENvbnRlbnQgU2lnbmluZzBZMBMGByqGSM49AgEGCCqGSM49AwEHA0IABJh6CmvLUBgFFNU0vUKlOVtE6djd17L5SuwX0LemFisBM3dkd/3cyjxFA3Qo5S46fX0/ihY0VZ7mfb9KF703t5OjWDBWMA4GA1UdDwEB/wQEAwIHgDAVBgNVHSUEDjAMBgorBgEEAYPoXgIBMAwGA1UdEwEB/wQCMAAwHwYDVR0jBBgwFoAUzlHiBIFOZFsj+OPEz5o+nMHXXMIwCgYIKoZIzj0EAwMDZwAwZAIwMXMdFJ4BetLLVY7ORuE9noqbbAZOZn/aArXyTwFAZfKrPzxF2vPoJNf1+UCdg1XGAjBwX1zd9WGqYkqmL5SFqw1QySjr1zJfpJM9+1rdDwSPLMOPOjKuiXjoU/pUUeG9RwmhY3BhZFkNngAAAAAAAAAAAAAAAAAAAAAAAAAAAAAAAAAAAAAAAAAAAAAAAAAAAAAAAAAAAAAAAAAAAAAAAAAAAAAAAAAAAAAAAAAAAAAAAAAAAAAAAAAAAAAAAAAAAAAAAAAAAAAAAAAAAAAAAAAAAAAAAAAAAAAAAAAAAAAAAAAAAAAAAAAAAAAAAAAAAAAAAAAAAAAAAAAAAAAAAAAAAAAAAAAAAAAAAAAAAAAAAAAAAAAAAAAAAAAAAAAAAAAAAAAAAAAAAAAAAAAAAAAAAAAAAAAAAAAAAAAAAAAAAAAAAAAAAAAAAAAAAAAAAAAAAAAAAAAAAAAAAAAAAAAAAAAAAAAAAAAAAAAAAAAAAAAAAAAAAAAAAAAAAAAAAAAAAAAAAAAAAAAAAAAAAAAAAAAAAAAAAAAAAAAAAAAAAAAAAAAAAAAAAAAAAAAAAAAAAAAAAAAAAAAAAAAAAAAAAAAAAAAAAAAAAAAAAAAAAAAAAAAAAAAAAAAAAAAAAAAAAAAAAAAAAAAAAAAAAAAAAAAAAAAAAAAAAAAAAAAAAAAAAAAAAAAAAAAAAAAAAAAAAAAAAAAAAAAAAAAAAAAAAAAAAAAAAAAAAAAAAAAAAAAAAAAAAAAAAAAAAAAAAAAAAAAAAAAAAAAAAAAAAAAAAAAAAAAAAAAAAAAAAAAAAAAAAAAAAAAAAAAAAAAAAAAAAAAAAAAAAAAAAAAAAAAAAAAAAAAAAAAAAAAAAAAAAAAAAAAAAAAAAAAAAAAAAAAAAAAAAAAAAAAAAAAAAAAAAAAAAAAAAAAAAAAAAAAAAAAAAAAAAAAAAAAAAAAAAAAAAAAAAAAAAAAAAAAAAAAAAAAAAAAAAAAAAAAAAAAAAAAAAAAAAAAAAAAAAAAAAAAAAAAAAAAAAAAAAAAAAAAAAAAAAAAAAAAAAAAAAAAAAAAAAAAAAAAAAAAAAAAAAAAAAAAAAAAAAAAAAAAAAAAAAAAAAAAAAAAAAAAAAAAAAAAAAAAAAAAAAAAAAAAAAAAAAAAAAAAAAAAAAAAAAAAAAAAAAAAAAAAAAAAAAAAAAAAAAAAAAAAAAAAAAAAAAAAAAAAAAAAAAAAAAAAAAAAAAAAAAAAAAAAAAAAAAAAAAAAAAAAAAAAAAAAAAAAAAAAAAAAAAAAAAAAAAAAAAAAAAAAAAAAAAAAAAAAAAAAAAAAAAAAAAAAAAAAAAAAAAAAAAAAAAAAAAAAAAAAAAAAAAAAAAAAAAAAAAAAAAAAAAAAAAAAAAAAAAAAAAAAAAAAAAAAAAAAAAAAAAAAAAAAAAAAAAAAAAAAAAAAAAAAAAAAAAAAAAAAAAAAAAAAAAAAAAAAAAAAAAAAAAAAAAAAAAAAAAAAAAAAAAAAAAAAAAAAAAAAAAAAAAAAAAAAAAAAAAAAAAAAAAAAAAAAAAAAAAAAAAAAAAAAAAAAAAAAAAAAAAAAAAAAAAAAAAAAAAAAAAAAAAAAAAAAAAAAAAAAAAAAAAAAAAAAAAAAAAAAAAAAAAAAAAAAAAAAAAAAAAAAAAAAAAAAAAAAAAAAAAAAAAAAAAAAAAAAAAAAAAAAAAAAAAAAAAAAAAAAAAAAAAAAAAAAAAAAAAAAAAAAAAAAAAAAAAAAAAAAAAAAAAAAAAAAAAAAAAAAAAAAAAAAAAAAAAAAAAAAAAAAAAAAAAAAAAAAAAAAAAAAAAAAAAAAAAAAAAAAAAAAAAAAAAAAAAAAAAAAAAAAAAAAAAAAAAAAAAAAAAAAAAAAAAAAAAAAAAAAAAAAAAAAAAAAAAAAAAAAAAAAAAAAAAAAAAAAAAAAAAAAAAAAAAAAAAAAAAAAAAAAAAAAAAAAAAAAAAAAAAAAAAAAAAAAAAAAAAAAAAAAAAAAAAAAAAAAAAAAAAAAAAAAAAAAAAAAAAAAAAAAAAAAAAAAAAAAAAAAAAAAAAAAAAAAAAAAAAAAAAAAAAAAAAAAAAAAAAAAAAAAAAAAAAAAAAAAAAAAAAAAAAAAAAAAAAAAAAAAAAAAAAAAAAAAAAAAAAAAAAAAAAAAAAAAAAAAAAAAAAAAAAAAAAAAAAAAAAAAAAAAAAAAAAAAAAAAAAAAAAAAAAAAAAAAAAAAAAAAAAAAAAAAAAAAAAAAAAAAAAAAAAAAAAAAAAAAAAAAAAAAAAAAAAAAAAAAAAAAAAAAAAAAAAAAAAAAAAAAAAAAAAAAAAAAAAAAAAAAAAAAAAAAAAAAAAAAAAAAAAAAAAAAAAAAAAAAAAAAAAAAAAAAAAAAAAAAAAAAAAAAAAAAAAAAAAAAAAAAAAAAAAAAAAAAAAAAAAAAAAAAAAAAAAAAAAAAAAAAAAAAAAAAAAAAAAAAAAAAAAAAAAAAAAAAAAAAAAAAAAAAAAAAAAAAAAAAAAAAAAAAAAAAAAAAAAAAAAAAAAAAAAAAAAAAAAAAAAAAAAAAAAAAAAAAAAAAAAAAAAAAAAAAAAAAAAAAAAAAAAAAAAAAAAAAAAAAAAAAAAAAAAAAAAAAAAAAAAAAAAAAAAAAAAAAAAAAAAAAAAAAAAAAAAAAAAAAAAAAAAAAAAAAAAAAAAAAAAAAAAAAAAAAAAAAAAAAAAAAAAAAAAAAAAAAAAAAAAAAAAAAAAAAAAAAAAAAAAAAAAAAAAAAAAAAAAAAAAAAAAAAAAAAAAAAAAAAAAAAAAAAAAAAAAAAAAAAAAAAAAAAAAAAAAAAAAAAAAAAAAAAAAAAAAAAAAAAAAAAAAAAAAAAAAAAAAAAAAAAAAAAAAAAAAAAAAAAAAAAAAAAAAAAAAAAAAAAAAAAAAAAAAAAAAAAAAAAAAAAAAAAAAAAAAAAAAAAAAAAAAAAAAAAAAAAAAAAAAAAAAAAAAAAAAAAAAAAAAAAAAAAAAAAAAAAAAAAAAAAAAAAAAAAAAAAAAAAAAAAAAAAAAAAAAAAAAAAAAAAAAAAAAAAAAAAAAAAAAAAAAAAAAAAAAAAAAAAAAAAAAAAAAAAAAAAAAAAAAAAAAAAAAAAAAAAAAAAAAAAAAAAAAAAAAAAAAAAAAAAAAAAAAAAAAAAAAAAAAAAAAAAAAAAAAAAAAAAAAAAAAAAAAAAAAAAAAAAAAAAAAAAAAAAAAAAAAAAAAAAAAAAAAAAAAAAAAAAAAAAAAAAAAAAAAAAAAAAAAAAAAAAAAAAAAAAAAAAAAAAAAAAAAAAAAAAAAAAAAAAAAAAAAAAAAAAAAAAAAAAAAAAAAAAAAAAAAAAAAAAAAAAAAAAAAAAAAAAAAAAAAAAAAAAAAAAAAAAAAAAAAAAAAAAAAAAAAAAAAAAAAAAAAAAAAAAAAAAAAAAAAAAAAAAAAAAAAAAAAAAAAAAAAAAAAAAAAAAAAAAAAAAAAAAAAAAAAAAAAAAAAAAAAAAAAAAAAAAAAAAAAAAAAAAAAAAAAAAAAAAAAAAAAAAAAAAAAAAAAAAAAAAAAAAAAAAAAAAAAAAAAAAAAAAAAAAAAAAAAAAAAAAAAAAAAAAAAAAAAAAAAAAAAAAAAAAAAAAAAAAAAAAAAAAAAAAAAAAAAAAAAAAAAAAAAAAAAAAAAAAAAAAAAAAAAAAAAAAAAAAAAAAAAAAAAAAAAAAAAAAAAAAAAAAAAAAAAAAAAAAAAAAAAAAAAAAAAAAAAAAAAAAAAAAAAAAAAAAAAAAAAAAAAAAAAAAAAAAAAAAAAAAAAAAAAAAAAAAAAAAAAAAAAAAAAAAAAAAAAAAAAAAAAAAAAAAAAAAAAAAAAAAAAAAAAAAAAAAAAAAAAAAAAAAAAAAAAAAAAAAAAAAAAAAAAAAAAAAAAAAAAAAAAAAAAAAAAAAAAAAAAAAAAAAAAAAAAAAAAAAAAAAAAAAAAAAAAAAAAAAAAAAAAAAAAAAAAAAAAAAAAAAAAAAAAAAAAAAAAAAAAAAAAAAAAAAAAAAAAAAAAAAAAAAAAAAAAAAAAAAAAAAAAAAAAAAAAAAAAAAAAAAAAAAAAAAAAAAAAAAAAAAAAAAAAAAAAAAAAAAAAAAAAAAAAAAAAAAAAAAAAAAAAAAAAAAAAAAAAAAAAAAAAAAAAAAAAAAAAAAAAAAAAAAAAAAAAAAAAAAAAAAAAAAAAAAAAAAAAAAAAAAAAAAAAAAAAAAAAAAAAAAAAAAAAAAAAAAAAAAAAAAAAAAAAAAAAAAAAAAAAAAAAAAAAAAAAAAAAAAAAAAAAAAAAAAAAAAAAAAAAAAAAAAAAAAAAAAAAAAAAAAAAAAAAAAAAAAAAAAAAAAAAAAAAAAAAAAAAAAAAAAAAAAAAAAAAAAAAAAAAAAAAAAAAAAAAAAAAAAAAAAAAAAAAAAAAAAAAAAAAAAAAAAAAAAAAAAAAAAAAAAAAAAAAAAAAAAAAAAAAAAAAAAAAAAAAAAAAAAAAAAAAAAAAAAAAAAAAAAAAAAAAAAAAAAAAAAAAAAAAAAAAAAAAAAAAAAAAAAAAAAAAAAAAAAAAAAAAAAAAAAAAAAAAAAAAAAAAAAAAAAAAAAAAAAAAAAAAAAAAAAAAAAAAAAAAAAAAAAAAAAAAAAAAAAAAAAAAAAAAAAAAAAAAAAAAAAAAAAAAAAAAAAAAAAAAAAAAAAAAAAAAAAAAAAAAAAAAAAAAAAAAAAAAAAAAAAAAAAAAAAAAAAAAAAAAAAAAAAAAAAAAAAAAAAAAAAAAAAAAAAAAPZYQDYqn8Z2/dW9qqoVYQ4Xw913wp68edrw6KqmLjqPCeArnxGHO8iguAPJeV3xR4QgTgIjok6aqN/D8f4CUKSjQXQ=</c2pa:manifest></metadata><defs><clipPath id="c170"><path d="M-6 -350 Q70 -380 100 -330 Q120 -280 100 -226 Q70 -270 -6 -262 Z"/></clipPath></defs><g stroke="#2b2233" stroke-linejoin="round" stroke-linecap="round" stroke-width="8.00"><g transform="translate(-72.0 -130.7) scale(1.16667)"><g transform="translate(200.0 740.0) rotate(28.0) scale(1.0000 1.0000)"><path d="M14.0 0.6 L14.5 -14.4 L15.0 -29.5 L15.4 -44.5 L15.7 -59.6 L16.0 -74.7 L16.2 -89.7 L16.4 -104.8 L16.6 -119.8 L16.6 -134.9 L16.6 -149.9 L16.6 -165.0 L16.5 -180.0 L16.3 -195.0 L16.1 -210.1 L15.9 -225.1 L15.6 -240.2 L15.2 -255.2 L14.7 -270.3 L14.3 -285.3 L13.7 -300.3 L13.1 -315.4 L12.5 -330.4 L11.8 -345.5 L11.0 -360.5 L-11.0 -359.5 L-10.5 -344.5 L-10.0 -329.6 L-9.6 -314.6 L-9.3 -299.7 L-9.0 -284.7 L-8.7 -269.7 L-8.6 -254.8 L-8.4 -239.8 L-8.4 -224.9 L-8.4 -209.9 L-8.4 -195.0 L-8.5 -180.0 L-8.7 -165.0 L-8.9 -150.1 L-9.1 -135.1 L-9.4 -120.2 L-9.8 -105.2 L-10.2 -90.3 L-10.7 -75.3 L-11.3 -60.4 L-11.9 -45.5 L-12.5 -30.5 L-13.2 -15.6 L-14.0 -0.6 Z" fill="#8a5a3c" stroke-width="25.47"/><path d="M14.0 0.6 L14.5 -14.4 L15.0 -29.5 L15.4 -44.5 L15.7 -59.6 L16.0 -74.7 L16.2 -89.7 L16.4 -104.8 L16.6 -119.8 L16.6 -134.9 L16.6 -149.9 L16.6 -165.0 L16.5 -180.0 L16.3 -195.0 L16.1 -210.1 L15.9 -225.1 L15.6 -240.2 L15.2 -255.2 L14.7 -270.3 L14.3 -285.3 L13.7 -300.3 L13.1 -315.4 L12.5 -330.4 L11.8 -345.5 L11.0 -360.5 L-11.0 -359.5 L-10.5 -344.5 L-10.0 -329.6 L-9.6 -314.6 L-9.3 -299.7 L-9.0 -284.7 L-8.7 -269.7 L-8.6 -254.8 L-8.4 -239.8 L-8.4 -224.9 L-8.4 -209.9 L-8.4 -195.0 L-8.5 -180.0 L-8.7 -165.0 L-8.9 -150.1 L-9.1 -135.1 L-9.4 -120.2 L-9.8 -105.2 L-10.2 -90.3 L-10.7 -75.3 L-11.3 -60.4 L-11.9 -45.5 L-12.5 -30.5 L-13.2 -15.6 L-14.0 -0.6 Z" fill="#8a5a3c" stroke="none"/><path d="M6.0 -20.0 L7.4 -33.3 L8.5 -46.6 L9.5 -59.9 L10.4 -73.3 L11.2 -86.6 L11.9 -99.9 L12.4 -113.3 L12.9 -126.6 L13.3 -140.0 L13.6 -153.3 L13.7 -166.7 L13.8 -180.0 L13.7 -193.3 L13.6 -206.7 L13.3 -220.0 L12.9 -233.4 L12.4 -246.7 L11.9 -260.1 L11.2 -273.4 L10.4 -286.7 L9.5 -300.1 L8.5 -313.4 L7.4 -326.7 L6.0 -340.0 L6.0 -340.0 L5.5 -326.6 L5.3 -313.3 L5.1 -299.9 L4.9 -286.6 L4.8 -273.3 L4.6 -259.9 L4.5 -246.6 L4.4 -233.3 L4.3 -220.0 L4.3 -206.6 L4.2 -193.3 L4.2 -180.0 L4.2 -166.7 L4.3 -153.4 L4.3 -140.0 L4.4 -126.7 L4.5 -113.4 L4.6 -100.1 L4.8 -86.7 L4.9 -73.4 L5.1 -60.1 L5.3 -46.7 L5.5 -33.4 L6.0 -20.0 Z" fill="#c08a5c" stroke="none" opacity="1"/><rect x="-16.0" y="-110.0" width="32.0" height="70.0" rx="6.0" fill="#6e3438" stroke-width="9.55"/><path d="M-15.0 -86.5 L15.0 -92.5" fill="none" stroke="#4f2530" stroke-width="6.37"/><path d="M-15.0 -69.0 L15.0 -75.0" fill="none" stroke="#4f2530" stroke-width="6.37"/><path d="M-15.0 -51.5 L15.0 -57.5" fill="none" stroke="#4f2530" stroke-width="6.37"/><path d="M-6 -350 Q70 -380 100 -330 Q120 -280 100 -226 Q70 -270 -6 -262 Z" fill="#7d7f96" stroke="none"/><g clip-path="url(#c170)"><path d="M-6 -350 Q70 -380 100 -330 Q120 -280 100 -226 Q70 -270 -6 -262 Z" fill="#b9bccf" stroke="none" transform="translate(0 8)"/><path d="M20.0 -340.0 L24.3 -339.6 L28.4 -339.4 L32.3 -339.0 L36.0 -338.5 L39.6 -337.8 L43.0 -337.1 L46.3 -336.2 L49.5 -335.2 L52.6 -334.1 L55.6 -332.8 L58.5 -331.5 L61.4 -330.1 L64.3 -328.5 L67.1 -326.8 L69.9 -325.0 L72.7 -322.9 L75.5 -320.8 L78.4 -318.4 L81.2 -315.8 L84.1 -313.1 L87.0 -310.1 L89.9 -306.9 L92.8 -303.5 L96.0 -300.0 L96.0 -300.0 L94.7 -304.6 L93.1 -308.9 L91.3 -313.0 L89.2 -316.9 L87.0 -320.6 L84.6 -324.1 L82.0 -327.4 L79.3 -330.4 L76.4 -333.2 L73.3 -335.7 L70.0 -338.0 L66.6 -339.9 L63.1 -341.6 L59.4 -343.0 L55.7 -344.1 L51.8 -344.8 L47.9 -345.3 L44.0 -345.4 L40.0 -345.3 L36.0 -344.9 L32.0 -344.1 L28.0 -343.1 L24.0 -341.8 L20.0 -340.0 Z" fill="#f0f2fa" stroke="none" opacity="1"/></g><path d="M-6 -350 Q70 -380 100 -330 Q120 -280 100 -226 Q70 -270 -6 -262 Z" fill="none" stroke-width="12.73"/><path d="M100 -330 Q116 -280 100 -226" fill="none" stroke="#f0f2fa" stroke-width="9.55"/><rect x="-20.0" y="-370.0" width="40.0" height="120.0" rx="10.0" fill="#3e3a48" stroke-width="11.14"/></g></g></g></svg>