<svg xmlns="http://www.w3.org/2000/svg" width="192" height="192" viewBox="0 0 512 512"><defs><clipPath id="c578"><path d="M210.0 530.0 Q256 514.0 302.0 530.0 Q306.0 640.0 262.0 730.0 Q254.0 740.0 248.0 724.0 Q206.0 640.0 210.0 530.0 Z"/></clipPath></defs><g stroke="#2b2233" stroke-linejoin="round" stroke-linecap="round" stroke-width="8.00"><g transform="translate(-31.4 -350.9) scale(1.10553)"><g transform="translate(250.0 530.0) rotate(-26.0)"><path d="M0 0 Q44.0 -75.0 8.8 -150.0 Q-26.4 -82.5 0 0 Z" fill="#87a35a" stroke-width="19.05"/></g><g transform="translate(262.0 530.0) rotate(24.0)"><path d="M0 0 Q42.0 -70.0 8.4 -140.0 Q-25.2 -77.0 0 0 Z" fill="#5f7a3e" stroke-width="19.05"/></g><g transform="translate(256.0 530.0) rotate(0.0)"><path d="M0 0 Q40.0 -85.0 8.0 -170.0 Q-24.0 -93.5 0 0 Z" fill="#b4cc7a" stroke-width="19.05"/></g><path d="M210.0 530.0 Q256 514.0 302.0 530.0 Q306.0 640.0 262.0 730.0 Q254.0 740.0 248.0 724.0 Q206.0 640.0 210.0 530.0 Z" fill="#cfc8bb" stroke="none"/><g clip-path="url(#c578)"><path d="M210.0 530.0 Q256 514.0 302.0 530.0 Q306.0 640.0 262.0 730.0 Q254.0 740.0 248.0 724.0 Q206.0 640.0 210.0 530.0 Z" fill="#f4f1ea" stroke="none" transform="translate(-8.0 -6.0)"/><path d="M226.0 580.0 Q246.0 586.0 262.0 578.0 M236.0 640.0 Q256 646.0 274.0 636.0" fill="none" stroke="#cfc8bb" stroke-width="11.11" opacity=".8"/></g><path d="M210.0 530.0 Q256 514.0 302.0 530.0 Q306.0 640.0 262.0 730.0 Q254.0 740.0 248.0 724.0 Q206.0 640.0 210.0 530.0 Z" fill="none" stroke-width="25.39"/><path d="M212.0 530.0 Q256 514.0 300.0 530.0 L300.0 560.0 Q256 550.0 212.0 560.0 Z" fill="#c9e0a0" stroke="none" opacity="0.9"/><path d="M226.0 550.0 L223.8 554.9 L222.3 560.0 L220.9 565.1 L219.8 570.2 L218.9 575.5 L218.2 580.8 L217.6 586.2 L217.3 591.6 L217.2 597.0 L217.3 602.5 L217.5 608.0 L218.0 613.5 L218.7 619.1 L219.6 624.6 L220.8 630.2 L222.1 635.8 L223.6 641.4 L225.3 646.9 L227.2 652.5 L229.3 658.1 L231.5 663.6 L234.0 669.1 L236.7 674.6 L240.0 680.0 L240.0 680.0 L240.4 673.7 L240.3 667.7 L240.2 661.7 L240.0 655.8 L239.7 650.0 L239.5 644.3 L239.2 638.7 L238.8 633.1 L238.4 627.6 L238.0 622.2 L237.5 616.8 L237.0 611.5 L236.4 606.2 L235.7 601.0 L235.0 595.8 L234.3 590.7 L233.4 585.5 L232.6 580.5 L231.7 575.4 L230.7 570.3 L229.8 565.2 L228.7 560.2 L227.6 555.1 L226.0 550.0 Z" fill="#ffffff" stroke="none" opacity="1"/></g></g></svg>