<svg xmlns="http://www.w3.org/2000/svg" width="192" height="192" viewBox="0 0 512 512" xmlns:c2pa="http://c2pa.org/manifest"><metadata><c2pa:manifest>AAAWgmp1bWIAAAAeanVtZGMycGEAEQAQgAAAqgA4m3EDYzJwYQAAABZcanVtYgAAAEdqdW1kYzJtYQARABCAAACqADibcQN1cm46YzJwYTo1ZGNjMDJhYi01YzdiLTQyZjItODdiYy1mYTdkNGZjOWEzY2QAAAADl2p1bWIAAAApanVtZGMyYXMAEQAQgAAAqgA4m3EDYzJwYS5hc3NlcnRpb25zAAAAALxqdW1iAAAARGp1bWRjYm9yABEAEIAAAKoAOJtxE2MycGEuaW5ncmVkaWVudC52MwAAAAAYYzJzaIhe1FuBWlyGWJ1NAJhYifMAAABwY2JvcqNpZGM6Zm9ybWF0bWltYWdlL3N2Zyt4bWxqaW5zdGFuY2VJRHgseG1wOmlpZDphNDUxZDY0OS0zMDk1LTRiMmItYjFjMi1mNzg0NDM1MzA2NThscmVsYXRpb25zaGlwaHBhcmVudE9mAAAB4mp1bWIAAABBanVtZGNib3IAEQAQgAAAqgA4m3ETYzJwYS5hY3Rpb25zLnYyAAAAABhjMnNo1UBrIQLputABiRNqTS6ifgAAAZljYm9yomdhY3Rpb25zgqJmYWN0aW9ua2MycGEub3BlbmVkanBhcmFtZXRlcnOha2luZ3JlZGllbnRzgaJjdXJseC1zZWxmI2p1bWJmPWMycGEuYXNzZXJ0aW9ucy9jMnBhLmluZ3JlZGllbnQudjNkaGFzaFgg+cw3Hzaw7eKPBXJxPavE1wQFr9OyIuc9dtn5lJBZ3r+kZmFjdGlvbngdY29tLmFudGhyb3BpYy5jbGF1ZGUucHJvdmlkZWRqcGFyYW1ldGVyc6F4H2NvbS5hbnRocm9waWMub3JpZ2luLWNvbmZpZGVuY2VndW5rbm93bmtkZXNjcmlwdGlvbnhmQ2xhdWRlIHByb3ZpZGVkIHRoaXMgZmlsZSBhdCB0aGUgcmVxdWVzdCBvZiBhIHVzZXIgYW5kIG1heSBoYXZlIGNyZWF0ZWQgb3IgbW9kaWZpZWQgdGhlIGZpbGUgY29udGVudHMubXNvZnR3YXJlQWdlbnShZG5hbWVmQ2xhdWRlcmFsbEFjdGlvbnNJbmNsdWRlZPUAAADIanVtYgAAAEBqdW1kY2JvcgARABCAAACqADibcRNjMnBhLmhhc2guZGF0YQAAAAAYYzJzaBXnFMlVmK05ftE+u3t7a3AAAACAY2JvcqVjYWxnZnNoYTI1NmNwYWRNAAAAAAAAAAAAAAAAAGRoYXNoWCAZeYHbWv6JNk+n26jjfne0cferuMQv3smnfGsLc8ewZGRuYW1lbmp1bWJmIG1hbmlmZXN0amV4Y2x1c2lvbnOBomVzdGFydBiWZmxlbmd0aBkeBAAAAj5qdW1iAAAAJ2p1bWRjMmNsABEAEIAAAKoAOJtxA2MycGEuY2xhaW0udjIAAAACD2Nib3KlY2FsZ2ZzaGEyNTZpc2lnbmF0dXJleE1zZWxmI2p1bWJmPS9jMnBhL3VybjpjMnBhOjVkY2MwMmFiLTVjN2ItNDJmMi04N2JjLWZhN2Q0ZmM5YTNjZC9jMnBhLnNpZ25hdHVyZWppbnN0YW5jZUlEeCx4bXA6aWlkOjVkNDUxNjRkLTA5NWEtNDQ0YS05NDhhLWVhZTUwYWNkNzU3N3JjcmVhdGVkX2Fzc2VydGlvbnODomN1cmx4LXNlbGYjanVtYmY9YzJwYS5hc3NlcnRpb25zL2MycGEuaW5ncmVkaWVudC52M2RoYXNoWCD5zDcfNrDt4o8FcnE9q8TXBAWv07Ii5z122fmUkFnev6JjdXJseCpzZWxmI2p1bWJmPWMycGEuYXNzZXJ0aW9ucy9jMnBhLmFjdGlvbnMudjJkaGFzaFggJOu5Q+tMBHtQGRv5/ityqntkq5FjpUbnNU0vz6LSWjuiY3VybHgpc2VsZiNqdW1iZj1jMnBhLmFzc2VydGlvbnMvYzJwYS5oYXNoLmRhdGFkaGFzaFgg4SPHkAWdu7Juziv6EvwUrQ+A5MAuUFvQaIK9AlnNpxJ0Y2xhaW1fZ2VuZXJhdG9yX2luZm+jZG5hbWVvQW50aHJvcGljIEZpbGVzZ3ZlcnNpb25lMS4wLjBrc3BlY1ZlcnNpb25lMi40LjAAABA4anVtYgAAAChqdW1kYzJjcwARABCAAACqADibcQNjMnBhLnNpZ25hdHVyZQAAABAIY2JvctKEWQISogEmGCFZAgowggIGMIIBjaADAgECAhRA5aAK7sI50L64g/oGQgU9Z1UTADAKBggqhkjOPQQDAzBJMRcwFQYDVQQKEw5BbnRocm9waWMsIFBCQzEuMCwGA1UEAxMlQW50aHJvcGljIENvbnRlbnQgQ3JlZGVudGlhbHMgUm9vdCBDQTAeFw0yNjA4MDcxODQzNTZaFw0yODA4MDYxOTQzNTZaMEQxFzAVBgNVBAoTDkFudGhyb3BpYywgUEJDMSkwJwYDVQQDEyBBbnRocm9waWMgQ2xhdWRlIENvbnRlbnQgU2lnbmluZzBZMBMGByqGSM49AgEGCCqGSM49AwEHA0IABJh6CmvLUBgFFNU0vUKlOVtE6djd17L5SuwX0LemFisBM3dkd/3cyjxFA3Qo5S46fX0/ihY0VZ7mfb9KF703t5OjWDBWMA4GA1UdDwEB/wQEAwIHgDAVBgNVHSUEDjAMBgorBgEEAYPoXgIBMAwGA1UdEwEB/wQCMAAwHwYDVR0jBBgwFoAUzlHiBIFOZFsj+OPEz5o+nMHXXMIwCgYIKoZIzj0EAwMDZwAwZAIwMXMdFJ4BetLLVY7ORuE9noqbbAZOZn/aArXyTwFAZfKrPzxF2vPoJNf1+UCdg1XGAjBwX1zd9WGqYkqmL5SFqw1QySjr1zJfpJM9+1rdDwSPLMOPOjKuiXjoU/pUUeG9RwmhY3BhZFkNngAAAAAAAAAAAAAAAAAAAAAAAAAAAAAAAAAAAAAAAAAAAAAAAAAAAAAAAAAAAAAAAAAAAAAAAAAAAAAAAAAAAAAAAAAAAAAAAAAAAAAAAAAAAAAAAAAAAAAAAAAAAAAAAAAAAAAAAAAAAAAAAAAAAAAAAAAAAAAAAAAAAAAAAAAAAAAAAAAAAAAAAAAAAAAAAAAAAAAAAAAAAAAAAAAAAAAAAAAAAAAAAAAAAAAAAAAAAAAAAAAAAAAAAAAAAAAAAAAAAAAAAAAAAAAAAAAAAAAAAAAAAAAAAAAAAAAAAAAAAAAAAAAAAAAAAAAAAAAAAAAAAAAAAAAAAAAAAAAAAAAAAAAAAAAAAAAAAAAAAAAAAAAAAAAAAAAAAAAAAAAAAAAAAAAAAAAAAAAAAAAAAAAAAAAAAAAAAAAAAAAAAAAAAAAAAAAAAAAAAAAAAAAAAAAAAAAAAAAAAAAAAAAAAAAAAAAAAAAAAAAAAAAAAAAAAAAAAAAAAAAAAAAAAAAAAAAAAAAAAAAAAAAAAAAAAAAAAAAAAAAAAAAAAAAAAAAAAAAAAAAAAAAAAAAAAAAAAAAAAAAAAAAAAAAAAAAAAAAAAAAAAAAAAAAAAAAAAAAAAAAAAAAAAAAAAAAAAAAAAAAAAAAAAAAAAAAAAAAAAAAAAAAAAAAAAAAAAAAAAAAAAAAAAAAAAAAAAAAAAAAAAAAAAAAAAAAAAAAAAAAAAAAAAAAAAAAAAAAAAAAAAAAAAAAAAAAAAAAAAAAAAAAAAAAAAAAAAAAAAAAAAAAAAAAAAAAAAAAAAAAAAAAAAAAAAAAAAAAAAAAAAAAAAAAAAAAAAAAAAAAAAAAAAAAAAAAAAAAAAAAAAAAAAAAAAAAAAAAAAAAAAAAAAAAAAAAAAAAAAAAAAAAAAAAAAAAAAAAAAAAAAAAAAAAAAAAAAAAAAAAAAAAAAAAAAAAAAAAAAAAAAAAAAAAAAAAAAAAAAAAAAAAAAAAAAAAAAAAAAAAAAAAAAAAAAAAAAAAAAAAAAAAAAAAAAAAAAAAAAAAAAAAAAAAAAAAAAAAAAAAAAAAAAAAAAAAAAAAAAAAAAAAAAAAAAAAAAAAAAAAAAAAAAAAAAAAAAAAAAAAAAAAAAAAAAAAAAAAAAAAAAAAAAAAAAAAAAAAAAAAAAAAAAAAAAAAAAAAAAAAAAAAAAAAAAAAAAAAAAAAAAAAAAAAAAAAAAAAAAAAAAAAAAAAAAAAAAAAAAAAAAAAAAAAAAAAAAAAAAAAAAAAAAAAAAAAAAAAAAAAAAAAAAAAAAAAAAAAAAAAAAAAAAAAAAAAAAAAAAAAAAAAAAAAAAAAAAAAAAAAAAAAAAAAAAAAAAAAAAAAAAAAAAAAAAAAAAAAAAAAAAAAAAAAAAAAAAAAAAAAAAAAAAAAAAAAAAAAAAAAAAAAAAAAAAAAAAAAAAAAAAAAAAAAAAAAAAAAAAAAAAAAAAAAAAAAAAAAAAAAAAAAAAAAAAAAAAAAAAAAAAAAAAAAAAAAAAAAAAAAAAAAAAAAAAAAAAAAAAAAAAAAAAAAAAAAAAAAAAAAAAAAAAAAAAAAAAAAAAAAAAAAAAAAAAAAAAAAAAAAAAAAAAAAAAAAAAAAAAAAAAAAAAAAAAAAAAAAAAAAAAAAAAAAAAAAAAAAAAAAAAAAAAAAAAAAAAAAAAAAAAAAAAAAAAAAAAAAAAAAAAAAAAAAAAAAAAAAAAAAAAAAAAAAAAAAAAAAAAAAAAAAAAAAAAAAAAAAAAAAAAAAAAAAAAAAAAAAAAAAAAAAAAAAAAAAAAAAAAAAAAAAAAAAAAAAAAAAAAAAAAAAAAAAAAAAAAAAAAAAAAAAAAAAAAAAAAAAAAAAAAAAAAAAAAAAAAAAAAAAAAAAAAAAAAAAAAAAAAAAAAAAAAAAAAAAAAAAAAAAAAAAAAAAAAAAAAAAAAAAAAAAAAAAAAAAAAAAAAAAAAAAAAAAAAAAAAAAAAAAAAAAAAAAAAAAAAAAAAAAAAAAAAAAAAAAAAAAAAAAAAAAAAAAAAAAAAAAAAAAAAAAAAAAAAAAAAAAAAAAAAAAAAAAAAAAAAAAAAAAAAAAAAAAAAAAAAAAAAAAAAAAAAAAAAAAAAAAAAAAAAAAAAAAAAAAAAAAAAAAAAAAAAAAAAAAAAAAAAAAAAAAAAAAAAAAAAAAAAAAAAAAAAAAAAAAAAAAAAAAAAAAAAAAAAAAAAAAAAAAAAAAAAAAAAAAAAAAAAAAAAAAAAAAAAAAAAAAAAAAAAAAAAAAAAAAAAAAAAAAAAAAAAAAAAAAAAAAAAAAAAAAAAAAAAAAAAAAAAAAAAAAAAAAAAAAAAAAAAAAAAAAAAAAAAAAAAAAAAAAAAAAAAAAAAAAAAAAAAAAAAAAAAAAAAAAAAAAAAAAAAAAAAAAAAAAAAAAAAAAAAAAAAAAAAAAAAAAAAAAAAAAAAAAAAAAAAAAAAAAAAAAAAAAAAAAAAAAAAAAAAAAAAAAAAAAAAAAAAAAAAAAAAAAAAAAAAAAAAAAAAAAAAAAAAAAAAAAAAAAAAAAAAAAAAAAAAAAAAAAAAAAAAAAAAAAAAAAAAAAAAAAAAAAAAAAAAAAAAAAAAAAAAAAAAAAAAAAAAAAAAAAAAAAAAAAAAAAAAAAAAAAAAAAAAAAAAAAAAAAAAAAAAAAAAAAAAAAAAAAAAAAAAAAAAAAAAAAAAAAAAAAAAAAAAAAAAAAAAAAAAAAAAAAAAAAAAAAAAAAAAAAAAAAAAAAAAAAAAAAAAAAAAAAAAAAAAAAAAAAAAAAAAAAAAAAAAAAAAAAAAAAAAAAAAAAAAAAAAAAAAAAAAAAAAAAAAAAAAAAAAAAAAAAAAAAAAAAAAAAAAAAAAAAAAAAAAAAAAAAAAAAAAAAAAAAAAAAAAAAAAAAAAAAAAAAAAAAAAAAAAAAAAAAAAAAAAAAAAAAAAAAAAAAAAAAAAAAAAAAAAAAAAAAAAAAAAAAAAAAAAAAAAAAAAAAAAAAAAAAAAAAAAAAAAAAAAAAAAAAAAAAAAAAAAAAAAAAAAAAAAAAAAAAAAAAAAAAAAAAAAAAAAAAAAAAAAAAAAAAAAAAAAAAAAAAAAAAAAAAAAAAAAAAAAAAAAAAAAAAAAAAAAAAAAAAAAAAAAAAAAAAAAAAAAAAAAAAAAAAAAAAAAAAAAAAAAAAAAAAAAAAAAAAAAAAAAAAAAAAAAAAAAAAAAAAAAAAAAAAAAAAAAAAAAAAAAAAAAAAAAAAAAAAAAAAAAAAAAAAAAAAAAAAAAAAAAAAAAAAAAAAAAAAAAAAAAAAAAAAAAAAAAAAAAAAAAAAAAAAAAAAAAAAAAAAAAAAAAAAAAAAAAAAAAAAAAAAAAAAAAAAAAAAAAAAAAAAAAAAAAAAAAAAAAAAAAAAAAAAAAAAAAAAAAAAAAAAAAAAAAAAAAAAAAAAAAAAAAAAAAAAAAAAAAAAAAAAAAAAAAAAAAAAAAAAAAAAAAAAAAAAAAAAAAAAAAAAAAAAAAAAAAAAAAAAAAAAAAAAAAAAAAAAAAAAAAAAAAAAAAAAAAAAAAAAAAAAAAAAAAAAAAAAAAAAAAAAAAAAAAAAAAAAAAAAAAAAAAAAAAAAAAAAAAAAAAAAAAAAAAAAAAAAAAAAAAAAAAAAAAAAAAAAAAAAAAAAAAAAAAAAAAAAAAAAAAAAAAAAAAAAAAAAAAAAAAAAAAAAAAAAAAAAAAAAAAAAAAAAAAAAAAAAAAAAAAAAAAAAAAAAAAAAAAAAAAAAAAAAAAAAAAAAAAAAAAAAAAAAAAAAAAAAAAAAAAAAAAAAAAAAAAAAAAAAAAAAAAAAAAAAAAAAAAAAAAAAAAAAAAAAAAAAAAAAAAAAAAAAAAAAAAAAAAAAAAAAAAAAAAAAAAAAAAAAAAAAAAAAAAAAAAAAAAAAAAAAAAAAAAAAAAAAAAAAAAAAAAAAAAAAAAAAAAAAAAAAAAAAAAAAAAAAAAAAAAAAAAAAAAAAAAAAAAAAAAAAAAAAAAAAAAAAAAAAAAAAAAAAAAAAAAAAAAAAAAAAAAAAAAAAAAAAAAAAAAAAAAAAAAAAAAAAAAAAAAAAAAAAAAAAAAAAAAAAAAAAAAAAAAAAAAAAAAAAAAAAAAAAAAAAAAAAAAAAAAAAAAAAAAAAAAAAAAAAAAAAAAAAAAAAAAAAAAAAAAAAAAAAAAAAAAAAAAAAAAAAAAAAAAAAAAAAAAAAAAAAAAAAAAAAAAAAAAAAAAAAAAAAAAAAAAAAAAAAAAAAAAAAAAAAAAAAAAAAAAAAAAAAAAAAAAAAAAAAAAAAAAAAAAAAAAAAAAAAAAAAAAAAAAAAAAAAAAAAAAAAAAAAAAAAAAAAAAAAAAAAAAAAAAAAAAAAAAAAAAAAAAAAAAAAAAAAAAAAAAAAAAAAAAAAAAAAAAAAAAAAAAAAAAAAAAAAAAAAAAAAAAAAAAAAAAAAAAAAAAAAAAAAAAAAAAAAAAAAAAAAAAAAAAAAAAAAAAAAAAAAAAAAAAAAAAAAAAAAAAAAAAAAAAAAAAAAAAAAAAAAAAAAAAAAAAAAAAAAAAAAAAAAAAAAAAAAAAAAAAAAAAAAAAAAAAAAAAAAAAAAAAAAAAAAAAAAAAAAAAAAAAAAAAAAAAAAAAAAAAAAAAAAAAAAAAPZYQMVuYnKuPukTQxrCvdY3k160e5InxLyr0Bwt8lQhJpCY2RnBc/GiVi2TFOgzyJD9ANOYCUwoDuW/bvZwpqs00Jk=</c2pa:manifest></metadata><defs><clipPath id="c28"><path d="M256 404 m-80 0 a80 106 0 1 0 160 0 a80 106 0 1 0 -160 0"/></clipPath></defs><g stroke="#2b2233" stroke-linejoin="round" stroke-linecap="round" stroke-width="8.00"><g transform="translate(-48.4 -427.8) scale(1.18919)"><ellipse cx="256.0" cy="560.0" rx="170.0" ry="170.0" fill="#eef4ff" stroke="none" opacity="0.18"/><rect x="236.0" y="630.0" width="40.0" height="116.0" rx="14.0" fill="#c9c6da" stroke-width="21.29"/><path d="M246.0 650.0 L244.4 653.3 L243.1 656.6 L242.1 659.9 L241.1 663.2 L240.3 666.6 L239.6 669.9 L239.0 673.3 L238.6 676.7 L238.2 680.0 L238.0 683.4 L237.9 686.8 L237.9 690.2 L238.0 693.6 L238.3 696.9 L238.7 700.3 L239.2 703.7 L239.9 707.0 L240.6 710.4 L241.5 713.7 L242.5 717.0 L243.6 720.3 L244.8 723.6 L246.2 726.8 L248.0 730.0 L248.0 730.0 L249.2 726.5 L249.9 723.1 L250.6 719.7 L251.2 716.3 L251.7 713.0 L252.1 709.6 L252.5 706.3 L252.8 703.0 L253.0 699.7 L253.1 696.4 L253.1 693.1 L253.1 689.8 L253.0 686.5 L252.8 683.2 L252.5 680.0 L252.1 676.7 L251.7 673.4 L251.1 670.1 L250.5 666.8 L249.9 663.4 L249.1 660.1 L248.3 656.8 L247.3 653.4 L246.0 650.0 Z" fill="#ffffff" stroke="none" opacity="1"/><circle cx="256" cy="738" r="14" fill="#6f8fd0" stroke-width="15.21"/><path d="M244.8 738 A11.200000000000001 11.200000000000001 0 0 1 267.2 738 Z" fill="#a8c8ff" stroke="none"/><circle cx="256" cy="738" r="14" fill="none" stroke-width="15.21"/><circle cx="251.1" cy="733.1" r="3.08" fill="#eef4ff" stroke="none"/><path d="M256 400 m-104 0 a104 132 0 1 0 208 0 a104 132 0 1 0 -208 0" fill="#c9c6da" stroke-width="24.33" transform="translate(0 150)"/><g transform="translate(0.0 150.0) rotate(0.0) scale(1.0000 1.0000)"><path d="M256 404 m-80 0 a80 106 0 1 0 160 0 a80 106 0 1 0 -160 0" fill="#1c1a2c" stroke="none"/><g clip-path="url(#c28)"><path d="M256 404 m-80 0 a80 106 0 1 0 160 0 a80 106 0 1 0 -160 0" fill="#2e2c46" stroke="none" transform="translate(-10 -10)"/><path d="M196.0 380.0 L198.4 375.9 L200.4 372.0 L202.2 368.3 L203.9 364.7 L205.6 361.3 L207.2 358.0 L208.8 354.7 L210.3 351.6 L211.7 348.6 L213.1 345.6 L214.4 342.7 L215.7 339.8 L216.9 336.8 L218.1 333.9 L219.2 330.9 L220.3 327.9 L221.4 324.8 L222.6 321.7 L223.7 318.4 L224.9 315.1 L226.2 311.6 L227.5 308.0 L228.9 304.3 L230.0 300.0 L230.0 300.0 L225.6 300.8 L221.6 302.2 L217.9 304.0 L214.3 306.0 L210.9 308.3 L207.7 310.8 L204.7 313.6 L201.9 316.5 L199.3 319.7 L197.1 323.0 L195.0 326.6 L193.3 330.2 L191.9 334.1 L190.7 338.0 L189.8 342.0 L189.3 346.1 L189.0 350.3 L189.1 354.5 L189.4 358.8 L190.0 363.0 L190.9 367.3 L192.1 371.6 L193.7 375.8 L196.0 380.0 Z" fill="#8f8bb8" stroke="none" opacity="0.8"/></g><path d="M256 404 m-80 0 a80 106 0 1 0 160 0 a80 106 0 1 0 -160 0" fill="none" stroke-width="24.33"/></g><ellipse cx="226.0" cy="550.0" rx="12.0" ry="16.0" fill="#eef4ff" stroke-width="0.00"/><circle cx="226" cy="552" r="5" fill="#1c1a2c" stroke="none"/><ellipse cx="286.0" cy="550.0" rx="12.0" ry="16.0" fill="#eef4ff" stroke-width="0.00"/><circle cx="286" cy="552" r="5" fill="#1c1a2c" stroke="none"/><ellipse cx="256.0" cy="610.0" rx="22.0" ry="8.0" fill="#6f8fd0" stroke-width="0.00" opacity=".7"/><circle cx="360.0" cy="550.0" r="9" fill="#8f8ba8" stroke-width="12.17"/><circle cx="329.5" cy="643.3" r="9" fill="#8f8ba8" stroke-width="12.17"/><circle cx="256.0" cy="682.0" r="9" fill="#8f8ba8" stroke-width="12.17"/><circle cx="182.5" cy="643.3" r="9" fill="#8f8ba8" stroke-width="12.17"/><circle cx="152.0" cy="550.0" r="9" fill="#8f8ba8" stroke-width="12.17"/><circle cx="182.5" cy="456.7" r="9" fill="#8f8ba8" stroke-width="12.17"/><circle cx="256.0" cy="418.0" r="9" fill="#8f8ba8" stroke-width="12.17"/><circle cx="329.5" cy="456.7" r="9" fill="#8f8ba8" stroke-width="12.17"/><path d="M0 -10 Q1.5 -1.5 10 0 Q1.5 1.5 0 10 Q-1.5 1.5 -10 0 Q-1.5 -1.5 0 -10 Z" transform="translate(398.0 440.0) scale(1.4)" fill="#eef4ff" stroke="none" opacity="1"/><path d="M0 -10 Q1.5 -1.5 10 0 Q1.5 1.5 0 10 Q-1.5 1.5 -10 0 Q-1.5 -1.5 0 -10 Z" transform="translate(110.0 500.0) scale(1.1)" fill="#eef4ff" stroke="none" opacity="1"/><path d="M0 -10 Q1.5 -1.5 10 0 Q1.5 1.5 0 10 Q-1.5 1.5 -10 0 Q-1.5 -1.5 0 -10 Z" transform="translate(380.0 700.0) scale(0.8)" fill="#ffffff" stroke="none" opacity="1"/></g></g></svg>